<svg xmlns="http://www.w3.org/2000/svg" xmlns:xlink="http://www.w3.org/1999/xlink" x="0px" y="0px" width="800px" height="341px" viewBox="0 0 800 341" xml:space="preserve"><g id="Layer_2"></g><g id="Layer_5" display="none">	<polygon display="inline" fill="#99E2FF" points="800,202.602 712.279,174.55 548.016,186.768 420.195,188.625 295.933,167.344   124.094,177.174 0,215.905 0,341 800,341  "></polygon>	<circle display="inline" fill="#99E2FF" cx="71.152" cy="141" r="19.917"></circle>	<path display="inline" fill="#99E2FF" d="M66.115,155.683c0-36.514-29.601-66.115-66.115-66.115v132.23  C36.514,221.798,66.115,192.197,66.115,155.683z"></path>	<path display="inline" fill="#99E2FF" d="M733.885,155.683c0,36.515,29.601,66.115,66.115,66.115V89.568  C763.485,89.568,733.885,119.168,733.885,155.683z"></path>	<circle display="inline" fill="#99E2FF" cx="149.305" cy="159.096" r="42.277"></circle>	<circle display="inline" fill="#99E2FF" cx="98.34" cy="172.938" r="42.277"></circle>	<circle display="inline" fill="#99E2FF" cx="230.043" cy="187.532" r="42.277"></circle>	<circle display="inline" fill="#99E2FF" cx="61.549" cy="171.94" r="42.277"></circle>	<circle display="inline" fill="#99E2FF" cx="288.772" cy="169.75" r="33.713"></circle>	<circle display="inline" fill="#99E2FF" cx="333.669" cy="163.657" r="17.681"></circle>	<circle display="inline" fill="#99E2FF" cx="430.586" cy="184.78" r="28.892"></circle>	<circle display="inline" fill="#99E2FF" cx="255.842" cy="145.294" r="28.891"></circle>	<circle display="inline" fill="#99E2FF" cx="699.549" cy="129.15" r="28.891"></circle>	<circle display="inline" fill="#99E2FF" cx="533.223" cy="181.339" r="25.663"></circle>	<circle display="inline" fill="#99E2FF" cx="536.263" cy="201.373" r="42.452"></circle>	<circle display="inline" fill="#99E2FF" cx="708.678" cy="167.344" r="42.452"></circle>	<circle display="inline" fill="#99E2FF" cx="614.657" cy="199.949" r="42.452"></circle>	<circle display="inline" fill="#99E2FF" cx="193.33" cy="164.432" r="23.466"></circle>	<circle display="inline" fill="#99E2FF" cx="105.69" cy="126.791" r="19.836"></circle>	<circle display="inline" fill="#99E2FF" cx="365.005" cy="174.55" r="29.886"></circle>	<circle display="inline" fill="#99E2FF" cx="762.02" cy="153.521" r="35.104"></circle>	<circle display="inline" fill="#99E2FF" cx="654.771" cy="155.206" r="37.318"></circle>	<circle display="inline" fill="#99E2FF" cx="730.943" cy="134.881" r="18.479"></circle>	<circle display="inline" fill="#99E2FF" cx="477.908" cy="188.282" r="30.539"></circle>	<circle display="inline" fill="#99E2FF" cx="573.246" cy="164.432" r="33.301"></circle>	<circle display="inline" fill="#99E2FF" cx="607.813" cy="163.657" r="23.11"></circle>	<circle display="inline" fill="#99E2FF" cx="500.665" cy="167.344" r="15.592"></circle>	<circle display="inline" fill="#99E2FF" cx="395.15" cy="177.174" r="15.592"></circle>	<circle display="inline" fill="#99E2FF" cx="400" cy="191.409" r="15.592"></circle>	<circle display="inline" fill="#99E2FF" cx="219.674" cy="144.664" r="15.592"></circle></g><g id="Layer_4">	<polygon fill="#CAF1FF" points="800,195.638 632.635,192.45 422.667,228.84 278.651,214.218 0,206.48 0,341 800,341  "></polygon>	<circle fill="#CAF1FF" cx="53.227" cy="194.618" r="25.978"></circle>	<path fill="#CAF1FF" d="M53.227,190.199c0-29.396-23.831-53.226-53.227-53.226v106.454  C29.396,243.427,53.227,219.596,53.227,190.199z"></path>	<path fill="#CAF1FF" d="M800,136.973c-29.396,0-53.227,23.831-53.227,53.226c0,29.396,23.83,53.228,53.227,53.228V136.973z"></path>	<circle fill="#CAF1FF" cx="183.484" cy="220.597" r="40.03"></circle>	<circle fill="#CAF1FF" cx="90.955" cy="201.686" r="24.99"></circle>	<circle fill="#CAF1FF" cx="135.529" cy="196.852" r="28.373"></circle>	<circle fill="#CAF1FF" cx="292.602" cy="198.641" r="28.892"></circle>	<circle fill="#CAF1FF" cx="323.779" cy="198.641" r="28.891"></circle>	<circle fill="#CAF1FF" cx="400" cy="210.979" r="24.386"></circle>	<circle fill="#CAF1FF" cx="683.736" cy="177.69" r="28.892"></circle>	<circle fill="#CAF1FF" cx="643.126" cy="190.199" r="30.411"></circle>	<circle fill="#CAF1FF" cx="518.399" cy="199.949" r="28.892"></circle>	<circle fill="#CAF1FF" cx="246.627" cy="190.199" r="40.03"></circle>	<circle fill="#CAF1FF" cx="358.984" cy="215.908" r="24.095"></circle>	<circle fill="#CAF1FF" cx="748.316" cy="185.716" r="21.75"></circle>	<circle fill="#CAF1FF" cx="704.561" cy="215.908" r="35.104"></circle>	<circle fill="#CAF1FF" cx="603.812" cy="173.637" r="20.508"></circle>	<circle fill="#CAF1FF" cx="578.302" cy="202.676" r="40.03"></circle>	<circle fill="#CAF1FF" cx="489.508" cy="194.335" r="16.644"></circle>	<circle fill="#CAF1FF" cx="439.693" cy="222.311" r="30.539"></circle>	<circle fill="#CAF1FF" cx="484.615" cy="226.071" r="30.539"></circle>	<circle fill="#CAF1FF" cx="435.597" cy="223.026" r="15.592"></circle>	<circle fill="#CAF1FF" cx="715.612" cy="198.641" r="20.309"></circle></g><g id="Layer_1" display="none">	<path display="inline" fill="#FFFFFF" d="M767.825,211.425c-2.117-2.904-5.536-4.8-9.406-4.8c-0.753,0-1.487,0.078-2.201,0.215  c-5.616-5.904-13.541-9.59-22.333-9.59c-12.991,0-24.098,8.04-28.635,19.412c-2.802-13.024-14.378-22.789-28.24-22.789  c-4.164,0-8.119,0.888-11.696,2.475c-6.863-4.605-15.12-7.295-24.007-7.295c-15.985,0-29.93,8.7-37.385,21.617  c-3.912-2.13-8.397-3.341-13.166-3.341c-15.23,0-27.577,12.347-27.577,27.577c0,1.646,0.152,3.256,0.429,4.822  c-0.077-0.001-0.153-0.006-0.23-0.006c-7.392,0-13.975,3.444-18.244,8.812c-2.3-2.218-5.423-3.589-8.87-3.589  c-2.823,0-5.425,0.927-7.54,2.477c-5.216-5.141-12.374-8.315-20.275-8.315c-7.632,0-14.568,2.965-19.733,7.798  c-2.788-4.231-7.576-7.029-13.023-7.029c-2.479,0-4.813,0.594-6.895,1.623c-4.616-11.004-15.49-18.733-28.171-18.733  c-9.854,0-18.612,4.672-24.196,11.916c-4.843-3.664-10.874-5.841-17.415-5.841c-3.987,0-7.785,0.808-11.24,2.269  c-7.279-7.538-17.483-12.233-28.79-12.233c-15.845,0-29.537,9.207-36.024,22.562c-1.703-0.394-3.474-0.608-5.296-0.608  c-8.821,0-16.5,4.877-20.497,12.08c-0.797-8.984-8.333-16.031-17.525-16.031c-5.743,0-10.827,2.762-14.041,7.017  c-5.448-10.407-16.344-17.513-28.905-17.513c-2.701,0-5.323,0.334-7.833,0.953c-8.805-14.567-24.793-24.308-43.057-24.308  c-11.426,0-21.958,3.817-30.401,10.239c-3.82-2.729-8.494-4.34-13.546-4.34c-5.293,0-10.172,1.765-14.087,4.733  c-6.691-5.029-15.009-8.011-24.024-8.011c-6.672,0-12.957,1.642-18.489,4.528c-4.668-6.911-12.574-11.454-21.541-11.454  c-11.286,0-20.888,7.199-24.472,17.255C28.268,207.867,14.696,203.065,0,203.065v31.841v100.389V341h800v-5.705V231.801v-28.735  C788.317,203.065,777.35,206.107,767.825,211.425z"></path></g></svg>